<?xml version="1.0" encoding="UTF-8"?>
<svg viewBox="25 58 79 67" preserveAspectRatio="none" xmlns="http://www.w3.org/2000/svg" xmlns:xlink="http://www.w3.org/1999/xlink">
 <defs>
  <linearGradient id="af" x1=".61341" x2=".61341" y1=".72846" y2="-.53154" xlink:href="#a"/>
  <linearGradient id="ag" x1=".61338" x2=".61338" y1=".72392" y2="-.55708" xlink:href="#a"/>
  <linearGradient id="ae" x1=".3686" x2=".37809" y1=".3319" y2=".38362" xlink:href="#ab" spreadMethod="reflect"/>
  <linearGradient id="ah" x1=".48366" x2=".48366" y1=".1716" y2=".12313" xlink:href="#a"/>
  <linearGradient id="aj" x1=".44336" x2=".44336" y1="1.0268" y2="-.46437" xlink:href="#a"/>
  <linearGradient id="ak" x1=".41722" x2=".41722" y1=".012934" y2=".25036" xlink:href="#a"/>
  <linearGradient id="ai" x1=".47744" x2=".50908" y1=".23275" y2=".11468" xlink:href="#a"/>
  <linearGradient id="al" x1=".18729" x2=".18022" y1=".78449" y2=".84915" xlink:href="#ab" spreadMethod="reflect"/>
  <linearGradient id="az" x1=".49146" x2=".89527" y1=".60604" y2=".60604" spreadMethod="reflect">
   <stop stop-color="#a47c44" offset="0"/>
   <stop stop-color="#baa363" offset=".75"/>
   <stop stop-color="#d6c795" offset="1"/>
  </linearGradient>
  <linearGradient id="a">
   <stop stop-color="#fff" offset="0"/>
   <stop stop-color="#fff" stop-opacity="0" offset="1"/>
  </linearGradient>
  <linearGradient id="b">
   <stop stop-color="#ffe19c" offset="0"/>
   <stop stop-color="#b79e4f" stop-opacity="0" offset="1"/>
  </linearGradient>
  <linearGradient id="ab">
   <stop offset="0"/>
   <stop stop-color="#fff" offset="1"/>
  </linearGradient>
  <linearGradient id="ad" x1=".50176" x2=".50176" y1=".39656" y2=".42242" xlink:href="#ab" spreadMethod="reflect"/>
  <radialGradient id="aw" cx="8.0178" cy="231.98" r="7.4833" gradientTransform="matrix(7.5313 0 0 .53795 3.9743 -.012826)" gradientUnits="userSpaceOnUse" xlink:href="#ac"/>
  <radialGradient id="ar" cx="20.361" cy="22.546" r="15.157" gradientTransform="matrix(.6214 0 0 1.8821 -16.512 -15.97)" gradientUnits="userSpaceOnUse" xlink:href="#a"/>
  <radialGradient id="ax" cx="8.0178" cy="231.98" r="7.4833" gradientTransform="matrix(7.5313 0 0 .53795 3.9743 -2.0257)" gradientUnits="userSpaceOnUse" xlink:href="#ac"/>
  <radialGradient id="an" cx="20.361" cy="22.546" r="15.157" gradientTransform="matrix(.50007 0 0 1.6752 23.904 -11.668)" gradientUnits="userSpaceOnUse" xlink:href="#a"/>
  <radialGradient id="ay" cx="8.0178" cy="231.98" r="7.4833" gradientTransform="matrix(7.5313 0 0 .67244 3.9743 -34.231)" gradientUnits="userSpaceOnUse" xlink:href="#ac"/>
  <radialGradient id="av" cx="21.595" cy="8.9814" r="6.0679" gradientTransform="matrix(-2.8463 0 0 2.0879 139.53 -3.5862)" gradientUnits="userSpaceOnUse" xlink:href="#b"/>
  <radialGradient id="as" cx="21.595" cy="8.9814" r="6.0679" gradientTransform="matrix(2.3666 0 0 1.7265 -.40436 -.012826)" gradientUnits="userSpaceOnUse" xlink:href="#b"/>
  <radialGradient id="at" cx="21.595" cy="8.9814" r="6.0679" gradientTransform="matrix(-2.3666 0 0 1.7265 129.12 -.11292)" gradientUnits="userSpaceOnUse" xlink:href="#b"/>
  <radialGradient id="au" cx="21.595" cy="8.9814" r="6.0679" gradientTransform="matrix(3.085 0 0 2.0529 -15.985 -3.1493)" gradientUnits="userSpaceOnUse" xlink:href="#b"/>
  <radialGradient id="aq" cx="20.361" cy="22.546" r="15.157" gradientTransform="matrix(.50007 0 0 1.6752 -13.898 -11.668)" gradientUnits="userSpaceOnUse" xlink:href="#a"/>
  <radialGradient id="am" cx="20.361" cy="22.546" r="15.157" gradientTransform="matrix(.43334 0 0 1.435 25.311 -6.6735)" gradientUnits="userSpaceOnUse" xlink:href="#a"/>
  <radialGradient id="ao" cx="20.361" cy="22.546" r="15.157" gradientTransform="matrix(.6214 0 0 1.8821 21.29 -15.97)" gradientUnits="userSpaceOnUse" xlink:href="#a"/>
  <radialGradient id="ap" cx="20.361" cy="22.546" r="15.157" gradientTransform="matrix(.43334 0 0 1.435 -12.491 -6.6735)" gradientUnits="userSpaceOnUse" xlink:href="#a"/>
 </defs>

 <g fill-rule="evenodd">
  <g stroke-linecap="round" stroke-linejoin="round" stroke-width=".625">
   <rect x="24.103" y="57.359" width="80.513" height="66.259" rx=".5" ry=".5" fill="url(#az)"/>
   <rect x="24.103" y="57.359" width="80.513" height="66.259" rx=".5" ry=".5" fill="url(#ad)" opacity=".03"/>
   <rect x="24.103" y="57.359" width="80.513" height="66.259" rx=".5" ry=".5" fill="url(#ae)" opacity=".03"/>
   <rect x="24.103" y="57.359" width="80.513" height="66.259" rx=".5" ry=".5" fill="url(#al)" opacity=".03"/>
   <path d="m26.619 57.359c1.8101 2.1216 18.145 3.7862 38.655 3.7862 20.229 0 36.293-1.6472 38.484-3.7271-0.03083-0.00322-0.025513-0.059158-0.05719-0.059158h-77.082z" fill="#fff" opacity=".5"/>
  </g>
  <g transform="matrix(1.7195 0 0 1.9816 4.4209 1.4876)">
   <path d="m13.971 30.767c-0.43955 2.6295-0.93088 19.309 0.69644 22.88 1.5919 3.4933 1.3929-16.667 5.273-19.84 3.9212-3.2069-5.555-5.52-5.9695-3.04z" fill="url(#ap)" opacity=".403"/>
   <path d="m13.729 30.942c-0.50723 3.0697-1.0742 22.541 0.80369 26.71 1.837 4.0782 1.6074-19.457 6.0851-23.162 4.525-3.7437-6.4104-6.4441-6.8888-3.5489z" fill="url(#aq)" opacity=".3"/>
   <path d="m13.232 31.092c-0.6303 3.4488-1.3349 25.325 0.99868 30.009 2.2827 4.5818 1.9974-21.86 7.5614-26.022 5.6229-4.206-7.9657-7.2399-8.5601-3.9872z" fill="url(#ar)" opacity=".2"/>
  </g>
  <g transform="matrix(-1.7195 0 0 1.9816 124.3 1.4876)">
   <path d="m13.971 30.767c-0.43955 2.6295-0.93088 19.309 0.69644 22.88 1.5919 3.4933 1.3929-16.667 5.273-19.84 3.9212-3.2069-5.555-5.52-5.9695-3.04z" fill="url(#am)" opacity=".403"/>
   <path d="m13.729 30.942c-0.50723 3.0697-1.0742 22.541 0.80369 26.71 1.837 4.0782 1.6074-19.457 6.0851-23.162 4.525-3.7437-6.4104-6.4441-6.8888-3.5489z" fill="url(#an)" opacity=".3"/>
   <path d="m13.232 31.092c-0.6303 3.4488-1.3349 25.325 0.99868 30.009 2.2827 4.5818 1.9974-21.86 7.5614-26.022 5.6229-4.206-7.9657-7.2399-8.5601-3.9872z" fill="url(#ao)" opacity=".2"/>
  </g>
  <g stroke-linecap="round" stroke-linejoin="round" stroke-width=".625">
   <path d="m103.12 114.72v7.8872c0 0.55756-0.43214 1.0064-0.96891 1.0064h-75.575c-0.53678 0-0.96891-0.44886-0.96891-1.0064v-28.015c0 29.516 77.513-20.879 77.513 20.128z" fill="url(#aj)" opacity=".25"/>
   <path d="m25.646 123.62c1.8101-2.1216 18.145-3.7862 38.655-3.7862 20.229 0 36.293 1.6472 38.484 3.7271-0.03083 0.00322-0.025497 0.059158-0.057175 0.059158h-77.082z" opacity=".5"/>
  </g>
 </g>
</svg>
